<?xml version="1.0" encoding="UTF-8" standalone="no"?>
<!-- Created with Inkscape (http://www.inkscape.org/) -->
<svg
   xmlns:dc="http://purl.org/dc/elements/1.1/"
   xmlns:cc="http://web.resource.org/cc/"
   xmlns:rdf="http://www.w3.org/1999/02/22-rdf-syntax-ns#"
   xmlns:svg="http://www.w3.org/2000/svg"
   xmlns="http://www.w3.org/2000/svg"
   xmlns:sodipodi="http://sodipodi.sourceforge.net/DTD/sodipodi-0.dtd"
   xmlns:inkscape="http://www.inkscape.org/namespaces/inkscape"
   width="744.09448"
   height="800"
   id="svg2"
   sodipodi:version="0.32"
   inkscape:version="0.45.1"
   version="1.0"
   sodipodi:docbase="C:\Users\tony"
   sodipodi:docname="selection.svg"
   inkscape:output_extension="org.inkscape.output.svg.inkscape">
  <defs
     id="defs4" />
  <sodipodi:namedview
     id="base"
     pagecolor="#ffffff"
     bordercolor="#666666"
     borderopacity="1.0"
     inkscape:pageopacity="0.0"
     inkscape:pageshadow="2"
     inkscape:zoom="0.35355339"
     inkscape:cx="853.31314"
     inkscape:cy="434.35616"
     inkscape:document-units="px"
     inkscape:current-layer="layer1"
     height="800px"
     width="744.09448px"
     showguides="true"
     inkscape:guide-bbox="true"
     inkscape:window-width="1024"
     inkscape:window-height="718"
     inkscape:window-x="-8"
     inkscape:window-y="-8" />
  <metadata
     id="metadata7">
    <rdf:RDF>
      <cc:Work
         rdf:about="">
        <dc:format>image/svg+xml</dc:format>
        <dc:type
           rdf:resource="http://purl.org/dc/dcmitype/StillImage" />
      </cc:Work>
    </rdf:RDF>
  </metadata>
  <g
     inkscape:label="Calque 1"
     inkscape:groupmode="layer"
     id="layer1">
    <path
       style="fill:#ffd42a;fill-rule:evenodd;stroke:none;stroke-width:1px;stroke-linecap:butt;stroke-linejoin:miter;stroke-opacity:1"
       d="M 325.28374,458.67967 C 322.00598,444.92999 297.05981,488.50315 295.31495,495.82253 C 291.41266,512.19203 295.31495,536.00825 295.31495,552.96539 C 295.31495,583.94769 303.88522,594.00614 314.386,621.53682 C 320.12579,636.58525 325.28374,655.79715 325.28374,675.82253 C 325.28374,692.96539 306.21269,755.82253 306.21269,772.96537 C 306.21269,783.71767 325.28374,780.85717 325.28374,750.10824 C 325.28374,728.49342 334.28916,720.9034 338.90593,701.53682 C 342.50837,686.42512 344.35479,672.96134 344.35479,655.82253 C 344.35479,638.67967 344.35479,621.53682 344.35479,604.39396 C 344.35479,583.20661 342.89513,581.53682 363.42585,581.53682 C 376.12856,581.53682 395.98567,595.07327 409.74126,598.67967 C 423.8961,602.39075 444.0594,598.67967 458.7811,598.67967 C 463.96366,598.67967 461.50554,657.21053 461.50554,661.53682 C 461.50554,678.67967 441.84432,776.68907 482.71085,773.83197 C 491.04986,773.24897 476.4004,746.30135 472.40328,715.82253 C 470.3481,700.15132 475.12772,685.69043 475.12772,664.39396 C 475.12772,656.31574 488.48162,636.38523 491.47434,630.10824 C 497.88985,616.65221 494.19877,591.46457 494.19877,575.82253 C 494.19877,560.58443 494.19877,545.34634 494.19877,530.10824 C 494.19877,511.17209 484.93919,506.11192 472.40328,492.96539 C 458.28967,478.1643 449.89075,478.30369 434.26118,470.10824 C 420.05719,462.66031 405.33531,462.52453 390.67021,458.67967 C 378.0046,455.35903 360.29574,458.67967 347.07924,458.67967 C 339.81407,458.67967 332.54891,458.67967 325.28374,458.67967 z "
       id="path8014"
       sodipodi:nodetypes="csssssssssssssssssssssssc" />
    <path
       style="fill:#ffd42a;fill-opacity:1;fill-rule:evenodd;stroke:none;stroke-width:1px;stroke-linecap:butt;stroke-linejoin:miter;stroke-opacity:1"
       d="M 302.8067,467.25109 C 301.19524,458.48684 300.70536,433.34291 300.70536,415.82252 C 300.70536,395.82252 300.70536,375.82252 300.70536,355.82252 C 300.70536,338.67966 300.70536,321.53681 300.70536,304.39395 C 300.70536,292.32448 328.81563,300.37774 332.22546,301.53681 C 333.26908,301.89155 332.22546,337.93888 332.22546,341.53681 C 332.22546,367.12779 345.12789,377.42356 349.03617,398.67966 C 352.11024,415.39859 363.15894,426.45347 372.15093,438.67966 C 380.50784,450.04237 384.07168,463.148 391.06297,475.82252 C 398.96318,490.14481 405.72174,501.46797 414.17772,512.96538 C 422.11659,523.75967 423.4302,532.96538 409.97504,532.96538 C 394.56522,532.96538 379.15538,532.96538 363.74556,532.96538 C 349.03617,532.96538 334.32681,532.96538 319.61743,532.96538 C 302.79636,532.96538 300.70536,539.16412 300.70536,515.82252 C 300.70536,499.21444 300.4002,483.61145 302.8067,467.25109 z "
       id="path8016" />
    <g
       id="g8018"
       transform="matrix(0.4711424,0,0,0.3784247,77.977765,169.48853)"
       style="fill:#ffd42a">
      <path
         id="path8020"
         d="M 479.54887,317.75215 C 507.17335,317.75215 427.09816,350.7405 399.47369,350.7405 C 364.47781,350.7405 351.42857,344.82035 351.42857,400.22301 C 351.42857,427.43159 414.77101,416.7172 426.16541,416.7172 C 454.6366,416.7172 483.10777,416.7172 511.57895,416.7172 C 539.36647,416.7172 554.28571,386.31681 554.28571,342.49339 C 554.28571,313.82688 518.80905,309.50504 500.90225,309.50504"
         style="fill:#ffd42a;fill-rule:evenodd;stroke:none;stroke-width:1px;stroke-linecap:butt;stroke-linejoin:miter;stroke-opacity:1" />
      <path
         id="path8022"
         d="M 502.85714,329.50504 C 488.06275,322.46829 471.82394,290.98458 460,275.21933 C 438.85883,247.0311 486.69543,261.12984 500,263.79075 C 501.19754,264.03026 500,302.87562 500,306.6479 C 500,309.50504 500,312.36218 500,315.21933"
         style="fill:#ffd42a;fill-rule:evenodd;stroke:none;stroke-width:1px;stroke-linecap:butt;stroke-linejoin:miter;stroke-opacity:1" />
      <path
         id="path8024"
         d="M 491.42857,338.07647 C 491.42857,338.26426 577.87789,306.20688 591.42857,298.07647 C 617.39551,282.49631 601.57273,309.21673 591.42857,329.50504 C 587.10558,338.15104 547.43994,335.21933 537.14286,335.21933 C 528.79298,335.21933 521.20536,331.23496 514.28571,329.50504"
         style="fill:#ffd42a;fill-rule:evenodd;stroke:none;stroke-width:1px;stroke-linecap:butt;stroke-linejoin:miter;stroke-opacity:1" />
    </g>
    <path
       style="fill:#ffcc00;fill-rule:evenodd;stroke:none;stroke-width:1px;stroke-linecap:butt;stroke-linejoin:miter;stroke-opacity:1"
       d="M 108.19553,463.30513 C 104.91777,449.55545 79.971597,493.12861 78.226738,500.44799 C 74.324449,516.81749 78.226738,540.63371 78.226738,557.59085 C 78.226738,588.57315 86.797011,598.6316 97.297789,626.16228 C 103.03757,641.21071 108.19553,660.42261 108.19553,680.44799 C 108.19553,697.59085 89.12448,760.44799 89.12448,777.59087 C 89.12448,788.34317 108.19553,785.48267 108.19553,754.7337 C 108.19553,733.11888 117.20095,725.52886 121.81772,706.16228 C 125.42016,691.05058 127.26659,677.5868 127.26659,660.44799 C 127.26659,643.30513 127.26659,626.16228 127.26659,609.01942 C 127.26659,587.83207 125.80693,586.16228 146.33763,586.16228 C 159.04034,586.16228 178.89745,599.69873 192.65304,603.30513 C 206.80789,607.01621 226.97119,603.30513 241.69289,603.30513 C 246.87544,603.30513 244.41733,661.83599 244.41733,666.16228 C 244.41733,683.30513 224.7561,781.31457 265.62264,778.45747 C 273.96165,777.87447 259.31218,750.92681 255.31507,720.44799 C 253.25989,704.77678 258.0395,690.31589 258.0395,669.01942 C 258.0395,660.9412 271.39341,641.01069 274.38612,634.7337 C 280.80163,621.27767 277.11055,596.09003 277.11055,580.44799 C 277.11055,565.20989 277.11055,549.9718 277.11055,534.7337 C 277.11055,515.79755 267.85098,510.73738 255.31507,497.59085 C 241.20145,482.78976 232.80253,482.92915 217.17297,474.7337 C 202.96897,467.28577 188.24709,467.14999 173.58199,463.30513 C 160.91638,459.98449 143.20754,463.30513 129.99103,463.30513 C 122.72586,463.30513 115.4607,463.30513 108.19553,463.30513 z "
       id="path8038"
       sodipodi:nodetypes="csssssssssssssssssssssssc" />
    <path
       style="fill:#ffcc00;fill-opacity:1;fill-rule:evenodd;stroke:none;stroke-width:1px;stroke-linecap:butt;stroke-linejoin:miter;stroke-opacity:1"
       d="M 80.324373,505.22332 C 78.712917,498.24565 78.223039,478.22726 78.223039,464.27837 C 78.223039,448.35533 78.223039,432.43229 78.223039,416.50925 C 78.223039,402.86093 78.223039,389.21262 78.223039,375.56429 C 78.223039,365.95516 106.3333,372.36678 109.74314,373.28958 C 110.78675,373.572 109.74314,402.27116 109.74314,405.13565 C 109.74314,425.50996 122.64556,433.70696 126.55385,450.63005 C 129.62792,463.94085 140.67662,472.74222 149.6686,482.47612 C 158.02551,491.52257 161.58935,501.95664 168.58065,512.04748 C 176.48085,523.4502 183.23941,532.46516 191.69539,541.61884 C 199.63427,550.21274 200.94787,557.54188 187.49271,557.54188 C 172.08289,557.54188 156.67305,557.54188 141.26324,557.54188 C 126.55385,557.54188 111.84448,557.54188 97.135104,557.54188 C 80.314036,557.54188 78.223039,562.47702 78.223039,543.89356 C 78.223039,530.67101 77.917873,518.24865 80.324373,505.22332 z "
       id="path8040" />
    <g
       id="g8042"
       transform="matrix(0.4711424,0,0,0.3784247,-136.41339,225.02568)"
       style="fill:#ffcc00">
      <path
         id="path8044"
         d="M 479.54887,317.75215 C 507.17335,317.75215 427.09816,350.7405 399.47369,350.7405 C 364.47781,350.7405 351.42857,344.82035 351.42857,400.22301 C 351.42857,427.43159 414.77101,416.7172 426.16541,416.7172 C 454.6366,416.7172 483.10777,416.7172 511.57895,416.7172 C 539.36647,416.7172 554.28571,386.31681 554.28571,342.49339 C 554.28571,313.82688 518.80905,309.50504 500.90225,309.50504"
         style="fill:#ffcc00;fill-rule:evenodd;stroke:none;stroke-width:1px;stroke-linecap:butt;stroke-linejoin:miter;stroke-opacity:1" />
      <path
         id="path8046"
         d="M 502.85714,329.50504 C 488.06275,322.46829 471.82394,290.98458 460,275.21933 C 438.85883,247.0311 486.69543,261.12984 500,263.79075 C 501.19754,264.03026 500,302.87562 500,306.6479 C 500,309.50504 500,312.36218 500,315.21933"
         style="fill:#ffcc00;fill-rule:evenodd;stroke:none;stroke-width:1px;stroke-linecap:butt;stroke-linejoin:miter;stroke-opacity:1" />
      <path
         id="path8048"
         d="M 491.42857,338.07647 C 491.42857,338.26426 577.87789,306.20688 591.42857,298.07647 C 617.39551,282.49631 601.57273,309.21673 591.42857,329.50504 C 587.10558,338.15104 547.43994,335.21933 537.14286,335.21933 C 528.79298,335.21933 521.20536,331.23496 514.28571,329.50504"
         style="fill:#ffcc00;fill-rule:evenodd;stroke:none;stroke-width:1px;stroke-linecap:butt;stroke-linejoin:miter;stroke-opacity:1" />
    </g>
    <path
       style="fill:#d38d5f;fill-rule:evenodd;stroke:#000000;stroke-width:0.70890051px;stroke-linecap:butt;stroke-linejoin:miter;stroke-opacity:1"
       d="M 22.501639,120.11081 C 56.63365,118.0745 104.70173,103.11808 145.76888,97.117473 C 192.57212,90.278723 246.93499,78.677953 292.6405,67.992583 C 354.88961,53.439533 426.03383,52.716983 489.34357,43.466353 C 497.16298,42.323813 505.07982,41.422503 512.94794,40.400573 C 549.41961,35.663563 587.99603,37.334793 625.72437,37.334793 C 642.33485,37.334793 658.94532,37.334793 675.5558,37.334793 C 685.33006,37.334793 695.66323,37.845763 704.40558,40.400573 C 705.34505,40.675113 670.00794,45.809883 665.06497,46.532133 C 646.5736,49.234033 625.94326,46.883373 607.36541,49.597913 C 586.84563,52.596203 566.38805,52.902843 547.04313,55.729463 C 521.77027,59.422263 502.52421,64.514163 484.09816,72.591243 C 466.74364,80.198623 447.70836,77.764713 426.39859,80.255693 C 422.02741,80.766663 417.65623,81.277623 413.28505,81.788583 C 382.83986,85.347433 355.38042,94.995403 324.113,98.650363 C 290.57949,102.57021 260.21662,118.57792 224.45012,118.57792 C 204.13177,118.57792 175.3405,124.98723 156.25972,127.77525 C 139.18649,130.26995 120.24074,129.97246 103.80557,132.37392 C 88.552363,134.60267 75.348363,141.39918 64.464959,146.16992 C 53.014739,151.18915 39.916444,156.40961 27.747054,159.96593"
       id="path8058" />
    <path
       style="fill:none;fill-rule:evenodd;stroke:#000000;stroke-width:0.87804472px;stroke-linecap:butt;stroke-linejoin:miter;stroke-opacity:1"
       d="M 290.13027,-0.91649692 C 290.13027,-0.91649692 290.13027,-0.91649692 290.13027,-0.91649692 z "
       id="path2172" />
    <path
       style="fill:#aad400;fill-rule:evenodd;stroke:#000000;stroke-width:0.87804472px;stroke-linecap:butt;stroke-linejoin:miter;stroke-opacity:1"
       d="M 255.95076,86.965463 C 254.33783,90.933563 250.70673,118.50075 250.70673,136.36313 C 250.70673,152.65864 291.34761,170.76478 303.14714,178.70399 C 314.86796,186.59023 295.47829,153.27132 290.03704,141.06766 C 283.51943,126.44996 273.24244,116.5918 261.19481,105.78362 C 253.52671,98.904403 255.95076,96.784013 255.95076,86.965463 z "
       id="path8050" />
    <path
       style="fill:#ccff00;fill-rule:evenodd;stroke:#000000;stroke-width:0.74124932px;stroke-linecap:butt;stroke-linejoin:miter;stroke-opacity:1"
       d="M 361.79017,61.025593 C 361.6251,60.966143 356.77239,81.384763 347.81574,97.512933 C 341.69642,108.53193 379.13116,116.1249 400.21988,117.64388 C 417.76625,118.9077 408.45361,89.243133 407.2071,87.447463 C 402.16921,80.190123 376.37596,72.514383 361.79017,68.574693"
       id="path8052" />
    <path
       style="fill:#d4ff2a;fill-rule:evenodd;stroke:#000000;stroke-width:0.53148746px;stroke-linecap:butt;stroke-linejoin:miter;stroke-opacity:1"
       d="M 585.7199,43.438903 C 582.49745,25.708553 599.28006,89.930073 610.07307,112.19932 C 617.31123,127.13382 617.43602,128.96815 624.17229,110.43622 C 633.31551,85.282573 622.74951,71.140493 608.79133,55.780523 C 600.49696,46.653173 595.23996,38.200843 585.7199,43.438903 z "
       id="path8054" />
    <path
       style="fill:#d4ff2a;fill-rule:evenodd;stroke:#000000;stroke-width:0.54585421px;stroke-linecap:butt;stroke-linejoin:miter;stroke-opacity:1"
       d="M 193.57723,96.187253 C 191.6074,94.564453 186.37801,126.48849 187.49157,132.22213 C 190.85455,149.53792 207.71227,162.72337 220.96273,172.95721 C 232.74593,182.05786 230.09123,161.59969 230.09123,155.72314 C 230.09123,144.76308 226.4143,137.67284 220.96273,130.6554 C 214.28175,122.05543 206.63566,114.33485 198.14148,105.58766 C 194.68894,102.03227 196.88642,104.70666 193.57723,96.187253 z "
       id="path8056" />
    <path
       style="fill:#d4ff2a;fill-rule:evenodd;stroke:#000000;stroke-width:0.54585421px;stroke-linecap:butt;stroke-linejoin:miter;stroke-opacity:1"
       d="M 82.530293,101.67624 C 80.721393,103.44342 116.30638,108.13482 122.69754,107.13582 C 141.99904,104.11882 156.69655,88.995413 168.10399,77.108153 C 178.24826,66.537193 155.44401,68.918783 148.89357,68.918783 C 136.67664,68.918783 128.77331,72.217433 120.95114,77.108153 C 111.36494,83.101793 102.759,89.961253 93.008703,97.581563 C 89.045603,100.67891 92.026683,98.707503 82.530293,101.67624 z "
       id="path8060" />
    <path
       style="fill:#d4ff2a;fill-rule:evenodd;stroke:#000000;stroke-width:0.54585421px;stroke-linecap:butt;stroke-linejoin:miter;stroke-opacity:1"
       d="M 305.32943,71.999473 C 303.35959,70.376673 298.1302,102.30071 299.24376,108.03436 C 302.60675,125.35014 319.46446,138.53559 332.71492,148.76943 C 344.49812,157.87008 341.84342,137.41191 341.84342,131.53536 C 341.84342,120.5753 338.16649,113.48506 332.71492,106.46762 C 326.03394,97.867653 318.38785,90.147073 309.89368,81.399883 C 306.44113,77.844493 308.63862,80.518883 305.32943,71.999473 z "
       id="path8062" />
    <path
       style="fill:#d4ff2a;fill-rule:evenodd;stroke:#000000;stroke-width:0.54585421px;stroke-linecap:butt;stroke-linejoin:miter;stroke-opacity:1"
       d="M 415.52692,54.630863 C 413.71803,56.398043 449.30301,61.089433 455.69417,60.090433 C 474.99567,57.073433 489.69318,41.950023 501.10062,30.062753 C 511.2449,19.491793 488.44064,21.873383 481.8902,21.873383 C 469.67327,21.873383 461.76994,25.172033 453.94777,30.062753 C 444.36158,36.056403 435.75563,42.915873 426.00534,50.536173 C 422.04223,53.633523 425.02331,51.662113 415.52692,54.630863 z "
       id="path8064" />
    <path
       style="fill:#aad400;fill-rule:evenodd;stroke:#000000;stroke-width:0.87804472px;stroke-linecap:butt;stroke-linejoin:miter;stroke-opacity:1"
       d="M 367.14533,39.276403 C 362.72218,37.829393 331.99367,34.571863 312.08289,34.571863 C 293.91866,34.571863 273.73617,71.031653 264.88652,81.617263 C 256.09591,92.132253 293.23572,74.737373 306.83886,69.855913 C 323.13286,64.008823 334.12153,54.789123 346.16916,43.980943 C 353.83726,37.101723 356.20081,39.276403 367.14533,39.276403 z "
       id="path8066" />
    <path
       style="fill:#ffcc00;fill-rule:evenodd;stroke:none;stroke-width:1px;stroke-linecap:butt;stroke-linejoin:miter;stroke-opacity:1"
       d="M 559.45139,444.61836 C 556.01397,430.49108 529.85267,475.26087 528.02282,482.78126 C 523.93045,499.60031 528.02282,524.07058 528.02282,541.49341 C 528.02282,573.32657 537.01055,583.66125 548.02282,611.94799 C 554.04219,627.40969 559.45139,647.1492 559.45139,667.72453 C 559.45139,685.33818 539.45139,749.92154 539.45139,767.53519 C 539.45139,778.58278 559.45139,775.64372 559.45139,744.05032 C 559.45139,721.8419 568.89546,714.04344 573.73711,694.145 C 577.51503,678.6183 579.45139,664.78477 579.45139,647.17528 C 579.45139,629.56163 579.45139,611.94799 579.45139,594.33434 C 579.45139,572.56513 577.92063,570.84949 599.45139,570.84949 C 612.77285,570.84949 633.5972,584.75768 648.02282,588.46313 C 662.86715,592.27612 684.0126,588.46313 699.45139,588.46313 C 704.88639,588.46313 702.30854,648.6014 702.30854,653.0465 C 702.30854,670.66014 681.68962,771.36115 724.54676,768.42559 C 733.29196,767.82658 717.92892,740.13888 713.73711,708.82304 C 711.58182,692.72145 716.59425,677.86343 716.59425,655.9821 C 716.59425,647.68203 730.59862,627.20418 733.73711,620.75481 C 740.46512,606.92924 736.59425,581.04988 736.59425,564.97827 C 736.59425,549.32169 736.59425,533.66512 736.59425,518.00854 C 736.59425,498.55236 726.88364,493.35322 713.73711,479.84565 C 698.93602,464.63809 690.12799,464.7813 673.73711,456.36079 C 658.84124,448.70832 643.40226,448.56881 628.02282,444.61836 C 614.74027,441.20652 596.16882,444.61836 582.30854,444.61836 C 574.68949,444.61836 567.07044,444.61836 559.45139,444.61836 z "
       id="path8080"
       sodipodi:nodetypes="csssssssssssssssssssssssc" />
    <path
       style="fill:#ffcc00;fill-opacity:1;fill-rule:evenodd;stroke:none;stroke-width:1px;stroke-linecap:butt;stroke-linejoin:miter;stroke-opacity:1"
       d="M 530.22263,432.136 C 528.53268,420.32361 528.01894,386.43482 528.01894,362.82098 C 528.01894,335.86514 528.01894,308.90929 528.01894,281.95344 C 528.01894,258.84843 528.01894,235.74344 528.01894,212.63842 C 528.01894,196.37128 557.49845,207.2254 561.07438,208.78759 C 562.16883,209.2657 561.07438,257.85001 561.07438,262.69928 C 561.07438,297.1906 574.60528,311.06716 578.70394,339.71596 C 581.92774,362.24961 593.51462,377.14929 602.94461,393.62766 C 611.70859,408.94222 615.44602,426.60589 622.77786,443.68851 C 631.06288,462.99198 638.15065,478.25325 647.01852,493.74937 C 655.3441,508.29783 656.72169,520.70521 642.61113,520.70521 C 626.4507,520.70521 610.29025,520.70521 594.12982,520.70521 C 578.70394,520.70521 563.27808,520.70521 547.85221,520.70521 C 530.21179,520.70521 528.01894,529.05983 528.01894,497.6002 C 528.01894,475.21596 527.69891,454.18637 530.22263,432.136 z "
       id="path8082" />
    <g
       id="g8084"
       transform="matrix(0.290917,0.4103345,-0.305875,0.2289323,503.64105,-90.662511)"
       style="fill:#ffcc00">
      <path
         id="path8086"
         d="M 479.54887,317.75215 C 507.17335,317.75215 427.09816,350.7405 399.47369,350.7405 C 364.47781,350.7405 351.42857,344.82035 351.42857,400.22301 C 351.42857,427.43159 414.77101,416.7172 426.16541,416.7172 C 454.6366,416.7172 483.10777,416.7172 511.57895,416.7172 C 539.36647,416.7172 554.28571,386.31681 554.28571,342.49339 C 554.28571,313.82688 518.80905,309.50504 500.90225,309.50504"
         style="fill:#ffcc00;fill-rule:evenodd;stroke:none;stroke-width:1px;stroke-linecap:butt;stroke-linejoin:miter;stroke-opacity:1" />
      <path
         id="path8088"
         d="M 502.85714,329.50504 C 488.06275,322.46829 471.82394,290.98458 460,275.21933 C 438.85883,247.0311 486.69543,261.12984 500,263.79075 C 501.19754,264.03026 500,302.87562 500,306.6479 C 500,309.50504 500,312.36218 500,315.21933"
         style="fill:#ffcc00;fill-rule:evenodd;stroke:none;stroke-width:1px;stroke-linecap:butt;stroke-linejoin:miter;stroke-opacity:1" />
      <path
         id="path8090"
         d="M 491.42857,338.07647 C 491.42857,338.26426 577.87789,306.20688 591.42857,298.07647 C 617.39551,282.49631 601.57273,309.21673 591.42857,329.50504 C 587.10558,338.15104 547.43994,335.21933 537.14286,335.21933 C 528.79298,335.21933 521.20536,331.23496 514.28571,329.50504"
         style="fill:#ffcc00;fill-rule:evenodd;stroke:none;stroke-width:1px;stroke-linecap:butt;stroke-linejoin:miter;stroke-opacity:1" />
    </g>
    <path
       style="fill:#aad400;fill-rule:evenodd;stroke:#000000;stroke-width:0.54585421px;stroke-linecap:butt;stroke-linejoin:miter;stroke-opacity:1"
       d="M 454.84615,53.540523 C 453.07897,51.731633 448.38758,87.316613 449.38658,93.707773 C 452.40358,113.00927 467.52699,127.70678 479.41426,139.11422 C 489.98522,149.2585 487.60363,126.45424 487.60363,119.9038 C 487.60363,107.68687 484.30498,99.783543 479.41426,91.961373 C 473.42061,82.375183 466.56114,73.769233 458.94084,64.018943 C 455.84349,60.055833 457.8149,63.036913 454.84615,53.540523 z "
       id="path8102" />
    <path
       style="fill:#ffcc00;fill-rule:evenodd;stroke:none;stroke-width:1px;stroke-linecap:butt;stroke-linejoin:miter;stroke-opacity:1"
       d="M -348.63629,440.02275 C -351.91405,426.27308 -376.86022,469.84623 -378.60508,477.16561 C -382.50737,493.53511 -378.60508,517.35133 -378.60508,534.30847 C -378.60508,565.29077 -370.03481,575.34922 -359.53403,602.8799 C -353.79425,617.92833 -348.63629,637.14023 -348.63629,657.16561 C -348.63629,674.30847 -367.70734,737.16561 -367.70734,754.30847 C -367.70734,765.06077 -348.63629,762.20027 -348.63629,731.45132 C -348.63629,709.8365 -339.63087,702.24648 -335.0141,682.8799 C -331.41166,667.7682 -329.56524,654.30442 -329.56524,637.16561 C -329.56524,620.02275 -329.56524,602.8799 -329.56524,585.73704 C -329.56524,564.54969 -331.0249,562.8799 -310.49419,562.8799 C -297.79148,562.8799 -277.93436,576.41635 -264.17878,580.02275 C -250.02393,583.73383 -229.86063,580.02275 -215.13893,580.02275 C -209.95637,580.02275 -212.41449,638.55361 -212.41449,642.8799 C -212.41449,660.02275 -232.07571,758.03217 -191.20918,755.17507 C -182.87017,754.59207 -197.51964,727.64443 -201.51675,697.16561 C -203.57193,681.4944 -198.79231,667.03351 -198.79231,645.73704 C -198.79231,637.65882 -185.43841,617.72831 -182.4457,611.45132 C -176.03019,597.99529 -179.72126,572.80765 -179.72126,557.16561 C -179.72126,541.92751 -179.72126,526.68942 -179.72126,511.45132 C -179.72126,492.51517 -188.98084,487.455 -201.51675,474.30847 C -215.63036,459.50738 -224.02928,459.64677 -239.65885,451.45132 C -253.86284,444.00339 -268.58472,443.86761 -283.24983,440.02275 C -295.91544,436.70212 -313.62429,440.02275 -326.8408,440.02275 C -334.10596,440.02275 -341.37112,440.02275 -348.63629,440.02275 z "
       id="path8104"
       sodipodi:nodetypes="csssssssssssssssssssssssc" />
    <path
       style="fill:#ffcc00;fill-opacity:1;fill-rule:evenodd;stroke:none;stroke-width:1px;stroke-linecap:butt;stroke-linejoin:miter;stroke-opacity:1"
       d="M -376.50745,427.87404 C -378.1189,416.37737 -378.60878,383.39438 -378.60878,360.4117 C -378.60878,334.17635 -378.60878,307.94099 -378.60878,281.70564 C -378.60878,259.21819 -378.60878,236.73076 -378.60878,214.24331 C -378.60878,198.41097 -350.49852,208.97497 -347.08868,210.49541 C -346.04507,210.96074 -347.08868,258.24646 -347.08868,262.96611 C -347.08868,296.53553 -334.18626,310.04119 -330.27797,337.92425 C -327.20391,359.8556 -316.15521,374.35704 -307.16322,390.39496 C -298.8063,405.30019 -295.24247,422.49174 -288.25117,439.11777 C -280.35097,457.90527 -273.59241,472.75863 -265.13643,487.84056 C -257.19755,502.00016 -255.88395,514.07591 -269.33911,514.07591 C -284.74893,514.07591 -300.15876,514.07591 -315.56858,514.07591 C -330.27797,514.07591 -344.98734,514.07591 -359.69672,514.07591 C -376.51778,514.07591 -378.60878,522.20722 -378.60878,491.58846 C -378.60878,469.80252 -378.91395,449.33502 -376.50745,427.87404 z "
       id="path8106" />
    <g
       id="g8108"
       transform="matrix(0.4711424,0,0,0.3784247,-593.24521,57.493523)"
       style="fill:#ffcc00">
      <path
         id="path8110"
         d="M 479.54887,317.75215 C 507.17335,317.75215 427.09816,350.7405 399.47369,350.7405 C 364.47781,350.7405 351.42857,344.82035 351.42857,400.22301 C 351.42857,427.43159 414.77101,416.7172 426.16541,416.7172 C 454.6366,416.7172 483.10777,416.7172 511.57895,416.7172 C 539.36647,416.7172 554.28571,386.31681 554.28571,342.49339 C 554.28571,313.82688 518.80905,309.50504 500.90225,309.50504"
         style="fill:#ffcc00;fill-rule:evenodd;stroke:none;stroke-width:1px;stroke-linecap:butt;stroke-linejoin:miter;stroke-opacity:1" />
      <path
         id="path8112"
         d="M 502.85714,329.50504 C 488.06275,322.46829 471.82394,290.98458 460,275.21933 C 438.85883,247.0311 486.69543,261.12984 500,263.79075 C 501.19754,264.03026 500,302.87562 500,306.6479 C 500,309.50504 500,312.36218 500,315.21933"
         style="fill:#ffcc00;fill-rule:evenodd;stroke:none;stroke-width:1px;stroke-linecap:butt;stroke-linejoin:miter;stroke-opacity:1" />
      <path
         id="path8114"
         d="M 491.42857,338.07647 C 491.42857,338.26426 577.87789,306.20688 591.42857,298.07647 C 617.39551,282.49631 601.57273,309.21673 591.42857,329.50504 C 587.10558,338.15104 547.43994,335.21933 537.14286,335.21933 C 528.79298,335.21933 521.20536,331.23496 514.28571,329.50504"
         style="fill:#ffcc00;fill-rule:evenodd;stroke:none;stroke-width:1px;stroke-linecap:butt;stroke-linejoin:miter;stroke-opacity:1" />
    </g>
    <path
       style="fill:#ffbf2a;fill-rule:evenodd;stroke:none;stroke-width:1px;stroke-linecap:butt;stroke-linejoin:miter;stroke-opacity:1;fill-opacity:1"
       d="M -579.3418,438.27128 C -582.61956,424.5216 -607.56573,468.09475 -609.31059,475.41413 C -613.21288,491.78363 -609.31059,515.59985 -609.31059,532.55699 C -609.31059,563.53929 -600.74032,573.59774 -590.23954,601.12842 C -584.49975,616.17685 -579.3418,635.38875 -579.3418,655.41413 C -579.3418,672.55699 -598.41285,735.41413 -598.41285,752.55697 C -598.41285,763.30927 -579.3418,760.44877 -579.3418,729.69984 C -579.3418,708.08502 -570.33638,700.495 -565.71961,681.12842 C -562.11717,666.01672 -560.27075,652.55294 -560.27075,635.41413 C -560.27075,618.27127 -560.27075,601.12842 -560.27075,583.98556 C -560.27075,562.79821 -561.73041,561.12842 -541.19969,561.12842 C -528.49698,561.12842 -508.63987,574.66487 -494.88428,578.27127 C -480.72944,581.98235 -460.56614,578.27127 -445.84444,578.27127 C -440.66188,578.27127 -443.12,636.80213 -443.12,641.12842 C -443.12,658.27127 -462.78122,756.28067 -421.91469,753.42357 C -413.57568,752.84057 -428.22514,725.89295 -432.22226,695.41413 C -434.27744,679.74292 -429.49782,665.28203 -429.49782,643.98556 C -429.49782,635.90734 -416.14392,615.97683 -413.1512,609.69984 C -406.73569,596.24381 -410.42677,571.05617 -410.42677,555.41413 C -410.42677,540.17603 -410.42677,524.93794 -410.42677,509.69984 C -410.42677,490.76369 -419.68635,485.70352 -432.22226,472.55699 C -446.33587,457.7559 -454.73479,457.89529 -470.36436,449.69984 C -484.56835,442.25191 -499.29023,442.11613 -513.95533,438.27128 C -526.62094,434.95064 -544.3298,438.27128 -557.5463,438.27128 C -564.81147,438.27128 -572.07663,438.27128 -579.3418,438.27128 z "
       id="path8116"
       sodipodi:nodetypes="csssssssssssssssssssssssc" />
    <path
       style="fill:#ffbf2a;fill-opacity:1;fill-rule:evenodd;stroke:none;stroke-width:1px;stroke-linecap:butt;stroke-linejoin:miter;stroke-opacity:1"
       d="M -601.81884,446.84269 C -603.4303,438.07845 -603.92018,412.93451 -603.92018,395.41412 C -603.92018,375.41412 -603.92018,355.41412 -603.92018,335.41412 C -603.92018,318.27126 -603.92018,301.12841 -603.92018,283.98555 C -603.92018,271.91608 -575.80991,279.96934 -572.40008,281.12841 C -571.35646,281.48315 -572.40008,317.53048 -572.40008,321.12841 C -572.40008,346.71939 -559.49765,357.01516 -555.58937,378.27126 C -552.5153,394.99019 -541.4666,406.04507 -532.47461,418.27126 C -524.1177,429.63398 -520.55386,442.7396 -513.56257,455.41412 C -505.66236,469.73641 -498.9038,481.05957 -490.44782,492.55698 C -482.50895,503.35127 -481.19534,512.55698 -494.6505,512.55698 C -510.06032,512.55698 -525.47016,512.55698 -540.87998,512.55698 C -555.58937,512.55698 -570.29873,512.55698 -585.00811,512.55698 C -601.82918,512.55698 -603.92018,518.75572 -603.92018,495.41412 C -603.92018,478.80604 -604.22534,463.20305 -601.81884,446.84269 z "
       id="path8118" />
    <g
       id="g8120"
       transform="matrix(0.4711424,0,0,0.3784247,-826.64778,149.08013)"
       style="fill:#ffbf2a;fill-opacity:1">
      <path
         id="path8122"
         d="M 479.54887,317.75215 C 507.17335,317.75215 427.09816,350.7405 399.47369,350.7405 C 364.47781,350.7405 351.42857,344.82035 351.42857,400.22301 C 351.42857,427.43159 414.77101,416.7172 426.16541,416.7172 C 454.6366,416.7172 483.10777,416.7172 511.57895,416.7172 C 539.36647,416.7172 554.28571,386.31681 554.28571,342.49339 C 554.28571,313.82688 518.80905,309.50504 500.90225,309.50504"
         style="fill:#ffbf2a;fill-rule:evenodd;stroke:none;stroke-width:1px;stroke-linecap:butt;stroke-linejoin:miter;stroke-opacity:1;fill-opacity:1" />
      <path
         id="path8124"
         d="M 502.85714,329.50504 C 488.06275,322.46829 471.82394,290.98458 460,275.21933 C 438.85883,247.0311 486.69543,261.12984 500,263.79075 C 501.19754,264.03026 500,302.87562 500,306.6479 C 500,309.50504 500,312.36218 500,315.21933"
         style="fill:#ffbf2a;fill-rule:evenodd;stroke:none;stroke-width:1px;stroke-linecap:butt;stroke-linejoin:miter;stroke-opacity:1;fill-opacity:1" />
      <path
         id="path8126"
         d="M 491.42857,338.07647 C 491.42857,338.26426 577.87789,306.20688 591.42857,298.07647 C 617.39551,282.49631 601.57273,309.21673 591.42857,329.50504 C 587.10558,338.15104 547.43994,335.21933 537.14286,335.21933 C 528.79298,335.21933 521.20536,331.23496 514.28571,329.50504"
         style="fill:#ffbf2a;fill-rule:evenodd;stroke:none;stroke-width:1px;stroke-linecap:butt;stroke-linejoin:miter;stroke-opacity:1;fill-opacity:1" />
    </g>
    <path
       style="fill:#e9cc00;fill-rule:evenodd;stroke:none;stroke-width:1px;stroke-linecap:butt;stroke-linejoin:miter;stroke-opacity:1;fill-opacity:1"
       d="M -796.43002,442.89673 C -799.70778,429.14706 -824.65395,472.72021 -826.39881,480.03959 C -830.3011,496.40909 -826.39881,520.22531 -826.39881,537.18245 C -826.39881,568.16475 -817.82854,578.2232 -807.32776,605.75388 C -801.58798,620.80231 -796.43002,640.01421 -796.43002,660.03959 C -796.43002,677.18245 -815.50107,740.03959 -815.50107,757.18247 C -815.50107,767.93477 -796.43002,765.07427 -796.43002,734.3253 C -796.43002,712.71048 -787.4246,705.12046 -782.80783,685.75388 C -779.20539,670.64218 -777.35896,657.1784 -777.35896,640.03959 C -777.35896,622.89673 -777.35896,605.75388 -777.35896,588.61102 C -777.35896,567.42367 -778.81862,565.75388 -758.28792,565.75388 C -745.58521,565.75388 -725.72809,579.29033 -711.9725,582.89673 C -697.81765,586.60781 -677.65435,582.89673 -662.93265,582.89673 C -657.7501,582.89673 -660.20821,641.42759 -660.20821,645.75388 C -660.20821,662.89673 -679.86944,760.90617 -639.0029,758.04907 C -630.66389,757.46607 -645.31336,730.51841 -649.31047,700.03959 C -651.36565,684.36838 -646.58604,669.90749 -646.58604,648.61102 C -646.58604,640.5328 -633.23213,620.60229 -630.23942,614.3253 C -623.82391,600.86927 -627.51499,575.68163 -627.51499,560.03959 C -627.51499,544.80149 -627.51499,529.5634 -627.51499,514.3253 C -627.51499,495.38915 -636.77456,490.32898 -649.31047,477.18245 C -663.42409,462.38136 -671.82301,462.52075 -687.45257,454.3253 C -701.65657,446.87737 -716.37845,446.74159 -731.04355,442.89673 C -743.70917,439.5761 -761.41801,442.89673 -774.63452,442.89673 C -781.89969,442.89673 -789.16485,442.89673 -796.43002,442.89673 z "
       id="path8128"
       sodipodi:nodetypes="csssssssssssssssssssssssc" />
    <path
       style="fill:#e9cc00;fill-opacity:1;fill-rule:evenodd;stroke:none;stroke-width:1px;stroke-linecap:butt;stroke-linejoin:miter;stroke-opacity:1"
       d="M -824.30117,484.81492 C -825.91263,477.83725 -826.40251,457.81886 -826.40251,443.86997 C -826.40251,427.94694 -826.40251,412.02389 -826.40251,396.10085 C -826.40251,382.45253 -826.40251,368.80422 -826.40251,355.15589 C -826.40251,345.54676 -798.29225,351.95838 -794.88241,352.88118 C -793.8388,353.1636 -794.88241,381.86276 -794.88241,384.72725 C -794.88241,405.10156 -781.97999,413.29856 -778.0717,430.22166 C -774.99763,443.53245 -763.94893,452.33382 -754.95695,462.06772 C -746.60004,471.11417 -743.0362,481.54824 -736.04489,491.63908 C -728.14469,503.0418 -721.38613,512.05676 -712.93015,521.21044 C -704.99127,529.80434 -703.67767,537.13348 -717.13283,537.13348 C -732.54265,537.13348 -747.9525,537.13348 -763.36231,537.13348 C -778.0717,537.13348 -792.78107,537.13348 -807.49044,537.13348 C -824.31151,537.13348 -826.40251,542.06862 -826.40251,523.48516 C -826.40251,510.26261 -826.70767,497.84025 -824.30117,484.81492 z "
       id="path8130" />
    <g
       id="g8132"
       transform="matrix(0.4711424,0,0,0.3784247,-1041.0389,204.61728)"
       style="fill:#e9cc00;fill-opacity:1">
      <path
         id="path8134"
         d="M 479.54887,317.75215 C 507.17335,317.75215 427.09816,350.7405 399.47369,350.7405 C 364.47781,350.7405 351.42857,344.82035 351.42857,400.22301 C 351.42857,427.43159 414.77101,416.7172 426.16541,416.7172 C 454.6366,416.7172 483.10777,416.7172 511.57895,416.7172 C 539.36647,416.7172 554.28571,386.31681 554.28571,342.49339 C 554.28571,313.82688 518.80905,309.50504 500.90225,309.50504"
         style="fill:#e9cc00;fill-rule:evenodd;stroke:none;stroke-width:1px;stroke-linecap:butt;stroke-linejoin:miter;stroke-opacity:1;fill-opacity:1" />
      <path
         id="path8136"
         d="M 502.85714,329.50504 C 488.06275,322.46829 471.82394,290.98458 460,275.21933 C 438.85883,247.0311 486.69543,261.12984 500,263.79075 C 501.19754,264.03026 500,302.87562 500,306.6479 C 500,309.50504 500,312.36218 500,315.21933"
         style="fill:#e9cc00;fill-rule:evenodd;stroke:none;stroke-width:1px;stroke-linecap:butt;stroke-linejoin:miter;stroke-opacity:1;fill-opacity:1" />
      <path
         id="path8138"
         d="M 491.42857,338.07647 C 491.42857,338.26426 577.87789,306.20688 591.42857,298.07647 C 617.39551,282.49631 601.57273,309.21673 591.42857,329.50504 C 587.10558,338.15104 547.43994,335.21933 537.14286,335.21933 C 528.79298,335.21933 521.20536,331.23496 514.28571,329.50504"
         style="fill:#e9cc00;fill-rule:evenodd;stroke:none;stroke-width:1px;stroke-linecap:butt;stroke-linejoin:miter;stroke-opacity:1;fill-opacity:1" />
    </g>
    <rect
       style="fill:#ff6600;fill-opacity:1;stroke:none"
       id="rect10110"
       width="288.55502"
       height="31.112698"
       x="-316.00482"
       y="628.83191"
       transform="matrix(0.625011,-0.7806159,0.7927187,0.6095876,0,0)" />
    <rect
       style="fill:#ff6600;fill-opacity:1;stroke:none"
       id="rect10112"
       width="288.55502"
       height="31.112698"
       x="-806.29645"
       y="0.98215693"
       transform="matrix(-0.625011,-0.7806159,-0.7927187,0.6095876,0,0)" />
    <rect
       style="fill:#ff6600;fill-opacity:1;stroke:none"
       id="rect10114"
       width="288.55502"
       height="31.112698"
       x="-467.24686"
       y="453.71643"
       transform="matrix(0.625011,-0.7806159,0.7927187,0.6095876,0,0)" />
    <rect
       style="fill:#ff6600;fill-opacity:1;stroke:none"
       id="rect10116"
       width="288.55502"
       height="31.112698"
       x="-672.99506"
       y="190.24274"
       transform="matrix(-0.625011,-0.7806159,-0.7927187,0.6095876,0,0)" />
  </g>
</svg>
